Coordinates
version=1
nRows=21
nColumns=12
inDegrees=yes

Units are S.I. units (second, meters, Newtons, ...)
Angles are in degrees

endheader
time	SC_y	SC_z	SC_x	AC_y	AC_z	AC_x	GH_y	GH_z	GH_yy	EL_x	PS_y
       0.0              -58.66          17.81          52.86          43.38          4.949         -9.474         -93.88          59.92          13.76          30.63          62.47
   0.03323              -58.66          17.81          52.86          43.38          4.946          -9.47         -93.86          59.92          13.78          30.63          62.48
   0.06646              -58.66          17.81          52.86          43.38          4.943         -9.465         -93.83          59.92           13.8          30.64          62.49
   0.09968              -58.65          17.82          52.85          43.38          4.939          -9.46          -93.8          59.92          13.83          30.64           62.5
    0.1329              -58.65          17.82          52.85          43.38          4.935         -9.455         -93.78          59.93          13.85          30.64          62.51
    0.1661              -58.65          17.82          52.84          43.38          4.932          -9.45         -93.74          59.93          13.88          30.65          62.53
    0.1994              -58.65          17.82          52.84          43.38          4.927         -9.444         -93.71          59.93          13.91          30.65          62.54
    0.2326              -58.65          17.83          52.83          43.39          4.923         -9.438         -93.68          59.93          13.94          30.65          62.55
    0.2658              -58.65          17.83          52.82          43.39          4.918         -9.431         -93.64          59.94          13.98          30.66          62.57
     0.299              -58.65          17.83          52.82          43.39          4.913         -9.424          -93.6          59.94          14.01          30.66          62.58
    0.3323              -58.65          17.84          52.81          43.39          4.908         -9.417         -93.56          59.95          14.05          30.66           62.6
    0.3655              -58.64          17.84           52.8          43.39          4.902         -9.408         -93.51          59.95          14.09          30.67          62.62
    0.3987              -58.64          17.85           52.8          43.39          4.895           -9.4         -93.46          59.96          14.14          30.67          62.64
     0.432              -58.64          17.85          52.79          43.39          4.889          -9.39         -93.41          59.96          14.18          30.68          62.66
    0.4652              -58.64          17.86          52.78           43.4          4.881          -9.38         -93.35          59.97          14.24          30.69          62.68
    0.4984              -58.64          17.86          52.77           43.4          4.873         -9.369         -93.29          59.97          14.29          30.69          62.71
    0.5316              -58.63          17.87          52.76           43.4          4.864         -9.356         -93.22          59.98          14.36           30.7          62.74
    0.5649              -58.63          17.88          52.74           43.4          4.855         -9.343         -93.15          59.99          14.42          30.71          62.77
    0.5981              -58.63          17.88          52.73           43.4          4.844         -9.329         -93.07          59.99           14.5          30.71           62.8
    0.6313              -58.62          17.89          52.71          43.41          4.833         -9.313         -92.98           60.0          14.58          30.72          62.84
    0.6646              -58.62           17.9           52.7          43.41          4.821         -9.296         -92.88          60.01          14.67          30.73          62.88
